<svg xmlns="http://www.w3.org/2000/svg" viewBox="0 0 24 24" width="48" height="48" fill="none">
  <defs>
    <linearGradient id="logo-grad" x1="0%" y1="0%" x2="100%" y2="100%">
      <stop offset="0%" stop-color="#8a3ffc" />
      <stop offset="100%" stop-color="#615fff" />
    </linearGradient>
  </defs>
  <rect width="24" height="24" rx="6" fill="url(#logo-grad)" />
  <g transform="translate(3, 3) scale(0.75)" stroke="#ffffff" stroke-width="2" stroke-linecap="round" stroke-linejoin="round" fill="none">
    <path d="M21.42 10.922a1 1 0 0 0-.019-1.838L12.83 5.18a2 2 0 0 0-1.66 0L2.6 9.084a1 1 0 0 0 0 1.832l8.57 3.908a2 2 0 0 0 1.66 0z" />
    <path d="M6 12.5v3a3 3 0 0 0 3 3h6a3 3 0 0 0 3-3v-3" />
    <path d="M18 12.5v5a1.5 1.5 0 0 0 3 0v-5" />
  </g>
</svg>